<svg width="167" height="53" viewBox="0 0 167 53" fill="none" xmlns="http://www.w3.org/2000/svg">
<g clip-path="url(#clip0_630_4664)">
<path d="M26.6644 2.58751C13.3986 2.58751 2.60356 13.316 2.60356 26.5C2.60356 39.684 13.3986 50.4125 26.6644 50.4125C39.9302 50.4125 50.7252 39.684 50.7252 26.5C50.7252 13.316 39.9302 2.58751 26.6644 2.58751ZM26.6644 53C11.964 53 0 41.1098 0 26.5C0 11.8902 11.964 0 26.6644 0C41.3648 0 53.3288 11.8902 53.3288 26.5C53.3288 41.1098 41.3648 53 26.6644 53Z" fill="#EC1017"/>
<path d="M39.4786 29.1757C36.0869 20.6386 30.9506 7.49864 26.9833 7.08499C26.877 7.07618 26.7707 7.06738 26.6645 7.06738C26.5582 7.06738 26.4519 7.07618 26.3457 7.08499C23.2993 7.40182 19.5799 15.182 16.4805 22.6453C17.1801 23.3846 18.0214 24.2471 19.0132 25.1888C21.1917 27.2658 23.503 29.3429 26.9744 31.8336C33.0405 36.0141 40.373 40.6962 41.5508 40.001C42.2504 39.6049 42.8703 37.7127 39.4786 29.1757Z" fill="#EC1017"/>
<path d="M15.7624 24.3613C14.9919 26.2536 14.5049 27.5033 13.8407 29.1755C10.449 37.7125 11.0689 39.6048 11.7773 40.0096C12.9197 40.6785 19.2515 36.7092 25.1848 32.6431C22.0144 30.2844 19.7828 28.2866 17.9674 26.5616C17.1261 25.7607 16.3911 25.0214 15.7624 24.3613Z" fill="#EC1017"/>
<path d="M75.2197 30.4431L72.0051 22.8477L68.7994 30.4431H75.2197ZM60.8913 36.8238L68.9676 18.7024C69.5256 17.4527 70.5528 16.6958 71.9431 16.6958H72.2442C73.6346 16.6958 74.6264 17.4527 75.1932 18.7024L83.2695 36.8238C83.4378 37.1847 83.5352 37.5191 83.5352 37.8448C83.5352 39.1913 82.4725 40.2826 81.1176 40.2826C79.9221 40.2826 79.1339 39.5874 78.6646 38.54L77.106 34.9228H66.9131L65.2926 38.7073C64.8586 39.693 63.9996 40.2826 62.9458 40.2826C61.6263 40.2826 60.5991 39.2265 60.5991 37.9152C60.5902 37.5455 60.723 37.1847 60.8913 36.8238Z" fill="#333333"/>
<path d="M85.0498 19.459C85.0498 18.0421 86.1745 16.9243 87.6002 16.9243H88.1581C89.2474 16.9243 90.009 17.4876 90.4783 18.2445L96.633 28.2073L102.823 18.2093C103.354 17.3556 104.081 16.9243 105.108 16.9243H105.666C107.092 16.9243 108.216 18.0421 108.216 19.459V37.7476C108.216 39.1646 107.092 40.2823 105.666 40.2823C104.275 40.2823 103.151 39.1294 103.151 37.7476V26.2622L98.6787 33.1007C98.1473 33.8928 97.4831 34.3856 96.5622 34.3856C95.6323 34.3856 94.977 33.8928 94.4457 33.1007L90.0444 26.3591V37.8092C90.0444 39.191 88.9197 40.2735 87.5294 40.2735C86.139 40.2735 85.0498 39.191 85.0498 37.8092V19.459Z" fill="#333333"/>
<path d="M111.528 19.3887C111.528 17.9717 112.653 16.854 114.079 16.854C115.505 16.854 116.629 17.9717 116.629 19.3887V37.7389C116.629 39.1559 115.505 40.2736 114.079 40.2736C112.653 40.2736 111.528 39.1559 111.528 37.7389V19.3887Z" fill="#333333"/>
<path d="M118.914 28.6384V28.5768C118.914 22.0288 124.041 16.6689 131.064 16.6689C134.571 16.6689 136.891 17.461 138.972 18.9044C139.468 19.2653 140.035 19.9605 140.035 20.9463C140.035 22.328 138.91 23.4458 137.52 23.4458C136.794 23.4458 136.324 23.1817 135.961 22.9177C134.571 21.932 133.083 21.3423 130.896 21.3423C127.185 21.3423 124.245 24.5987 124.245 28.5152V28.5768C124.245 32.7837 127.159 35.8817 131.259 35.8817C133.11 35.8817 134.766 35.424 136.059 34.4999V31.2083H132.614C131.392 31.2083 130.4 30.2578 130.4 29.0344C130.4 27.8199 131.392 26.8342 132.614 26.8342H138.441C139.867 26.8342 140.991 27.9519 140.991 29.3689V34.9576C140.991 36.4361 140.424 37.4571 139.202 38.1787C137.316 39.3317 134.571 40.4846 131.091 40.4846C123.873 40.4758 118.914 35.4416 118.914 28.6384Z" fill="#333333"/>
<path d="M161.677 28.6384V28.5768C161.677 24.6251 158.764 21.3423 154.664 21.3423C150.563 21.3423 147.712 24.5635 147.712 28.5152V28.5768C147.712 32.5285 150.625 35.8113 154.726 35.8113C158.826 35.8025 161.677 32.5813 161.677 28.6384ZM142.381 28.6384V28.5768C142.381 22.0288 147.579 16.6689 154.726 16.6689C161.872 16.6689 167.008 21.9672 167.008 28.5152V28.5768C167.008 35.1248 161.81 40.4846 154.664 40.4846C147.517 40.4846 142.381 35.1776 142.381 28.6384Z" fill="#333333"/>
</g>
<defs>
<clipPath id="clip0_630_4664">
<rect width="167" height="53" fill="white"/>
</clipPath>
</defs>
</svg>
