<svg width="135" height="37" viewBox="0 0 135 37" fill="none" xmlns="http://www.w3.org/2000/svg">
<path d="M28.516 14.2348L19.4856 23.242L18.108 24.6196H13.2102L14.5877 23.242L28.516 9.34272L36.999 17.8024C36.6282 7.92395 28.4748 0 18.5025 0C8.3005 0 0 8.30072 0 18.5029C0 20.2985 0.259023 22.041 0.741747 23.6835L15.1116 9.34272L20.4981 14.7176L18.0492 17.1607L15.1116 14.229L14.8467 14.4939L12.6332 16.7015L12.4625 16.8722L15.2117 19.6215L12.3978 22.4355L9.64271 19.6804L7.81189 21.5112L6.08115 23.2361L2.16048 27.1628C5.27464 33.0086 11.4323 37 18.5025 37C27.3975 37 34.8503 30.6891 36.6105 22.306L28.516 14.2348ZM28.6102 24.6372L25.0663 21.0991L27.5153 18.656L33.514 24.6431H28.6102V24.6372Z" fill="#1D39C4"/>
<path d="M56.8775 24.6667L61.9748 12.3333H64.3947L69.492 24.6667H66.5896L65.7615 22.6004H60.616L59.788 24.6667H56.8775ZM61.3879 20.4216H64.9816L63.1968 15.9433L61.3879 20.4216Z" fill="#1D39C4"/>
<path d="M54.57 17.3422V14.8097H59.0722L60.0933 12.3333H51.8445V24.6667H54.57V19.7623H57.0301L58.0271 17.3422H54.57Z" fill="#1D39C4"/>
<path d="M70.5533 24.6667V12.3333H72.9733L78.8826 19.9954V12.3333H81.5196V24.6667H79.2926L73.1904 16.7955V24.6667H70.5533Z" fill="#1D39C4"/>
<path d="M82.9907 24.6667L87.0589 18.3312L83.1998 12.3333H86.2388L88.7311 16.2649L91.2074 12.3333H94.2304L90.3954 18.3472L94.4796 24.6667H91.4727L88.7151 20.3814L85.9574 24.6667H82.9907Z" fill="#1D39C4"/>
<path d="M96.007 24.6667V12.3333H98.7325V24.6667H96.007Z" fill="#1D39C4"/>
<path d="M101.233 24.6667V12.3333H106.435C107.48 12.3333 108.413 12.7193 109.281 13.4831C110.149 14.2469 110.591 15.2519 110.591 16.5061C110.591 17.7121 110.165 18.701 109.321 19.497C108.469 20.2929 107.52 20.6788 106.435 20.6788H103.959V24.6586H101.233V24.6667ZM103.951 18.2106H106.266C106.636 18.2106 107.006 18.09 107.343 17.8246C107.681 17.5593 107.858 17.1171 107.858 16.5141C107.858 15.9111 107.681 15.485 107.343 15.2197C107.006 14.9544 106.636 14.8096 106.266 14.8096H103.951V18.2106Z" fill="#1D39C4"/>
<path d="M109.948 24.6667L115.046 12.3333H117.465L122.563 24.6667H119.66L118.832 22.6004H113.687L112.859 24.6667H109.948ZM114.459 20.4216H118.052L116.268 15.9433L114.459 20.4216Z" fill="#1D39C4"/>
<path d="M124.034 24.6667V12.3333H126.454L132.363 19.9954V12.3333H135V24.6667H132.773L126.671 16.7955V24.6667H124.034Z" fill="#1D39C4"/>
</svg>
