<svg id="Layer_1" data-name="Layer 1" xmlns="http://www.w3.org/2000/svg" xmlns:xlink="http://www.w3.org/1999/xlink" viewBox="0 0 540.65 150"><defs><style>.cls-1{fill:url(#linear-gradient);}.cls-2{fill:url(#linear-gradient-2);}.cls-3{fill:url(#linear-gradient-3);}.cls-4{fill:url(#linear-gradient-4);}.cls-5{fill:url(#linear-gradient-5);}.cls-6{fill:url(#linear-gradient-6);}.cls-7{fill:url(#linear-gradient-7);}.cls-8{fill:url(#linear-gradient-8);}.cls-9{fill:url(#linear-gradient-9);}.cls-10{fill:url(#linear-gradient-10);}.cls-11{fill:url(#linear-gradient-11);}.cls-12{fill:url(#linear-gradient-12);}.cls-13{fill:url(#linear-gradient-13);}.cls-14{fill:url(#linear-gradient-14);}.cls-15{fill:url(#linear-gradient-15);}.cls-16{fill:url(#linear-gradient-16);}.cls-17{fill:url(#linear-gradient-17);}.cls-18{fill:url(#linear-gradient-18);}.cls-19{fill:url(#linear-gradient-19);}.cls-20{fill:url(#linear-gradient-20);}.cls-21{fill:url(#linear-gradient-21);}.cls-22{fill:url(#linear-gradient-22);}.cls-23{fill:url(#linear-gradient-23);}.cls-24{fill:url(#linear-gradient-24);}.cls-25{fill:url(#linear-gradient-25);}.cls-26{fill:url(#linear-gradient-26);}.cls-27{fill:url(#linear-gradient-27);}.cls-28{fill:url(#linear-gradient-28);}.cls-29{fill:url(#linear-gradient-29);}.cls-30{fill:url(#linear-gradient-30);}.cls-31{fill:url(#linear-gradient-31);}.cls-32{fill:url(#linear-gradient-32);}.cls-33{fill:url(#linear-gradient-33);}.cls-34{fill:url(#linear-gradient-34);}.cls-35{fill:url(#linear-gradient-35);}.cls-36{fill:url(#linear-gradient-36);}.cls-37{fill:url(#linear-gradient-37);}</style><linearGradient id="linear-gradient" x1="137.42" y1="209.23" x2="401.58" y2="-54.93" gradientTransform="matrix(1, 0, 0, -1, 0, 157.57)" gradientUnits="userSpaceOnUse"><stop offset="0" stop-color="#a67033"/><stop offset="0.15" stop-color="#a87334"/><stop offset="0.25" stop-color="#b07b38"/><stop offset="0.33" stop-color="#bd8a3e"/><stop offset="0.41" stop-color="#cf9f47"/><stop offset="0.48" stop-color="#e6ba53"/><stop offset="0.53" stop-color="#ffd75f"/><stop offset="0.59" stop-color="#deb553"/><stop offset="0.66" stop-color="#c19748"/><stop offset="0.74" stop-color="#a97e3f"/><stop offset="0.81" stop-color="#996d39"/><stop offset="0.9" stop-color="#8f6335"/><stop offset="1" stop-color="#8c6034"/></linearGradient><linearGradient id="linear-gradient-2" x1="155.41" y1="227.21" x2="419.57" y2="-36.95" xlink:href="#linear-gradient"/><linearGradient id="linear-gradient-3" x1="169.54" y1="241.35" x2="433.7" y2="-22.81" xlink:href="#linear-gradient"/><linearGradient id="linear-gradient-4" x1="184.47" y1="256.29" x2="448.64" y2="-7.87" xlink:href="#linear-gradient"/><linearGradient id="linear-gradient-5" x1="199.44" y1="271.25" x2="463.6" y2="7.09" xlink:href="#linear-gradient"/><linearGradient id="linear-gradient-6" x1="216.2" y1="288.02" x2="480.36" y2="23.85" xlink:href="#linear-gradient"/><linearGradient id="linear-gradient-7" x1="227.39" y1="299.2" x2="491.56" y2="35.04" xlink:href="#linear-gradient"/><linearGradient id="linear-gradient-8" x1="238.35" y1="310.17" x2="502.52" y2="46.01" xlink:href="#linear-gradient"/><linearGradient id="linear-gradient-9" x1="253.29" y1="325.11" x2="517.46" y2="60.94" xlink:href="#linear-gradient"/><linearGradient id="linear-gradient-10" x1="266.4" y1="338.22" x2="530.57" y2="74.06" xlink:href="#linear-gradient"/><linearGradient id="linear-gradient-11" x1="275.53" y1="347.35" x2="539.7" y2="83.19" xlink:href="#linear-gradient"/><linearGradient id="linear-gradient-12" x1="186.71" y1="158.4" x2="386.82" y2="-41.71" xlink:href="#linear-gradient"/><linearGradient id="linear-gradient-13" x1="198.76" y1="170.45" x2="398.87" y2="-29.66" xlink:href="#linear-gradient"/><linearGradient id="linear-gradient-14" x1="208.97" y1="180.66" x2="409.08" y2="-19.44" xlink:href="#linear-gradient"/><linearGradient id="linear-gradient-15" x1="220.15" y1="191.83" x2="420.26" y2="-8.28" xlink:href="#linear-gradient"/><linearGradient id="linear-gradient-16" x1="240.07" y1="211.76" x2="440.18" y2="11.65" xlink:href="#linear-gradient"/><linearGradient id="linear-gradient-17" x1="251.13" y1="222.82" x2="451.23" y2="22.71" xlink:href="#linear-gradient"/><linearGradient id="linear-gradient-18" x1="263.35" y1="235.04" x2="463.45" y2="34.93" xlink:href="#linear-gradient"/><linearGradient id="linear-gradient-19" x1="271.43" y1="243.12" x2="471.54" y2="43.01" xlink:href="#linear-gradient"/><linearGradient id="linear-gradient-20" x1="284.38" y1="256.07" x2="484.48" y2="55.96" xlink:href="#linear-gradient"/><linearGradient id="linear-gradient-21" x1="294.42" y1="266.11" x2="494.52" y2="66" xlink:href="#linear-gradient"/><linearGradient id="linear-gradient-22" x1="55.43" y1="127.13" x2="316.36" y2="-133.81" xlink:href="#linear-gradient"/><linearGradient id="linear-gradient-23" x1="31.35" y1="110.38" x2="291.63" y2="-149.9" xlink:href="#linear-gradient"/><linearGradient id="linear-gradient-24" x1="92.33" y1="160.94" x2="366.4" y2="-113.13" xlink:href="#linear-gradient"/><linearGradient id="linear-gradient-25" x1="91.3" y1="162.8" x2="369.46" y2="-115.35" xlink:href="#linear-gradient"/><linearGradient id="linear-gradient-26" x1="87.39" y1="144.49" x2="303.49" y2="-71.61" xlink:href="#linear-gradient"/><linearGradient id="linear-gradient-27" x1="34.37" y1="124.88" x2="343.53" y2="-184.29" gradientTransform="matrix(1, 0, 0, -1, -5.24, 153.5)" xlink:href="#linear-gradient"/><linearGradient id="linear-gradient-28" x1="43.07" y1="119.27" x2="296.81" y2="-134.48" gradientTransform="matrix(1, 0, 0, -1, -5.24, 153.5)" xlink:href="#linear-gradient"/><linearGradient id="linear-gradient-29" x1="29.71" y1="105.2" x2="251.48" y2="-116.57" xlink:href="#linear-gradient"/><linearGradient id="linear-gradient-30" x1="28.05" y1="123.38" x2="316.81" y2="-165.37" xlink:href="#linear-gradient"/><linearGradient id="linear-gradient-31" x1="36.86" y1="116.2" x2="289.13" y2="-136.07" xlink:href="#linear-gradient"/><linearGradient id="linear-gradient-32" x1="83.04" y1="167.59" x2="380.2" y2="-129.57" xlink:href="#linear-gradient"/><linearGradient id="linear-gradient-33" x1="61.07" y1="127.08" x2="295.56" y2="-107.41" xlink:href="#linear-gradient"/><linearGradient id="linear-gradient-34" x1="43.11" y1="122.45" x2="300.8" y2="-135.25" xlink:href="#linear-gradient"/><linearGradient id="linear-gradient-35" x1="48.85" y1="119.18" x2="282.93" y2="-114.9" xlink:href="#linear-gradient"/><linearGradient id="linear-gradient-36" x1="39.25" y1="123.27" x2="317.06" y2="-154.54" gradientTransform="matrix(1, 0, 0, -1, -5.24, 153.5)" xlink:href="#linear-gradient"/><linearGradient id="linear-gradient-37" x1="107.67" y1="179.49" x2="371.84" y2="-84.67" gradientTransform="matrix(1, 0, 0, -1, -5.24, 153.5)" xlink:href="#linear-gradient"/></defs><path class="cls-1" d="M248.6,47.19h5.69V72.84h15.37L269,77.56H248.6Z" transform="translate(-5.24 -4.07)"/><path class="cls-2" d="M277.71,47.19V65.34c0,6.28,3.31,8.08,6.8,8.08,4,0,6.68-2,6.68-8.08V47.19h5.7V65.05C296.89,75.25,291,78,284.42,78S272,75.1,272,65.23v-18Z" transform="translate(-5.24 -4.07)"/><path class="cls-3" d="M328.35,68.44C327.08,73.93,323,78,315.6,78c-9.44,0-14-6.84-14-15.46,0-8.3,4.66-15.75,14.26-15.75,7.77,0,11.67,4.51,12.47,9.59h-5.7c-.79-2.67-2.61-5.06-7-5.06-5.86,0-8.17,5.29-8.17,11,0,5.42,2.08,11.12,8.34,11.12,4.42,0,6-2.8,6.78-5Z" transform="translate(-5.24 -4.07)"/><path class="cls-4" d="M332.8,47.19h5.63v14c2.09-2.33,8.84-9.45,13-14h6.88L345.83,59.84l13,17.68H352l-10.11-14-3.44,3.21V77.55H332.8Z" transform="translate(-5.24 -4.07)"/><path class="cls-5" d="M367.14,77.55V66.68a1.59,1.59,0,0,0-.24-.92L356.36,47.19h6.46c2.49,4.7,6,11.38,7.47,14.47,1.31-3,5-9.9,7.54-14.47h6L373.07,65.72a1.59,1.59,0,0,0-.22.9V77.55Z" transform="translate(-5.24 -4.07)"/><path class="cls-6" d="M396.24,77.55V47.19h7.18c4,6.91,11.84,20.17,13.34,23.47h.07c-.32-3.42-.31-8.52-.31-13.5v-10h5.22V77.55H415c-3.52-6.16-12-21-13.65-24.49h-.06c.22,2.93.27,8.8.27,14.25V77.55Z" transform="translate(-5.24 -4.07)"/><path class="cls-7" d="M434.24,47.19V77.55h-5.69V47.19Z" transform="translate(-5.24 -4.07)"/><path class="cls-8" d="M466,68.44c-1.26,5.49-5.39,9.52-12.75,9.52-9.44,0-14-6.84-14-15.46,0-8.3,4.66-15.75,14.26-15.75,7.77,0,11.68,4.51,12.47,9.59h-5.72c-.79-2.67-2.61-5.06-7-5.06-5.85,0-8.17,5.29-8.17,11,0,5.42,2.09,11.12,8.35,11.12,4.42,0,6-2.8,6.78-5Z" transform="translate(-5.24 -4.07)"/><path class="cls-9" d="M470.44,47.19h5.63v14c2.09-2.33,8.84-9.45,13-14H496l-12.5,12.65,13,17.68h-6.85l-10.12-14-3.43,3.21V77.55h-5.62Z" transform="translate(-5.24 -4.07)"/><path class="cls-10" d="M519.24,64.07H504.51v8.77h16.21L520,77.56H499V47.19H519.9V51.9H504.51v7.46h14.73Z" transform="translate(-5.24 -4.07)"/><path class="cls-11" d="M524.83,47.19h5.7V72.84h15.36l-.65,4.71H524.83Z" transform="translate(-5.24 -4.07)"/><path class="cls-12" d="M287.34,102.7v6.08h-2.7V94.09h6.21c3.14,0,4.83,1.72,4.83,4a3.42,3.42,0,0,1-2.27,3.47c.89.29,2,1.1,2,3.7V106a11.27,11.27,0,0,0,.21,2.84H293a10.46,10.46,0,0,1-.29-3.25v-.25c0-1.77-.46-2.58-2.92-2.58Zm0-2.23h2.9c1.91,0,2.69-.72,2.69-2.1s-.86-2.06-2.57-2.06h-3Z" transform="translate(-5.24 -4.07)"/><path class="cls-13" d="M317.81,102.26h-7.12v4.24h7.84l-.33,2.28H308V94.09h10.13v2.28h-7.44V100h7.12Z" transform="translate(-5.24 -4.07)"/><path class="cls-14" d="M333.24,105,332,108.78h-2.71l5.07-14.69h3.45l5.29,14.69h-2.91L338.79,105Zm4.92-2.29c-1.17-3.36-1.87-5.36-2.21-6.61h0c-.36,1.38-1.14,3.74-2.08,6.61Z" transform="translate(-5.24 -4.07)"/><path class="cls-15" d="M354.44,94.09h2.8V106.5h7.44l-.33,2.28h-9.91Z" transform="translate(-5.24 -4.07)"/><path class="cls-16" d="M400.44,102.26h-7.13v4.24h7.85l-.34,2.28H390.63V94.09h10.13v2.28h-7.45V100h7.13Z" transform="translate(-5.24 -4.07)"/><path class="cls-17" d="M414.86,104.55c.35,1.57,1.46,2.32,3.31,2.32s2.69-.81,2.69-2-.72-1.91-3.38-2.54c-3.81-.91-4.88-2.27-4.88-4.28,0-2.43,1.82-4.19,5.23-4.19,3.76,0,5.27,2.08,5.48,4.15h-2.78c-.19-1-.8-2.06-2.78-2.06-1.46,0-2.32.63-2.32,1.8s.7,1.6,3.14,2.17c4.24,1,5.11,2.62,5.11,4.63,0,2.57-1.93,4.42-5.72,4.42s-5.55-1.9-5.89-4.43Z" transform="translate(-5.24 -4.07)"/><path class="cls-18" d="M438.59,96.37H434V94.09H445.9v2.28h-4.55v12.41h-2.76Z" transform="translate(-5.24 -4.07)"/><path class="cls-19" d="M458.15,105l-1.3,3.74h-2.71l5.1-14.69h3.44L468,108.78h-2.9L463.72,105Zm4.92-2.29c-1.17-3.36-1.87-5.36-2.21-6.61h0c-.37,1.38-1.14,3.74-2.08,6.61Z" transform="translate(-5.24 -4.07)"/><path class="cls-20" d="M480.65,96.37h-4.56V94.09H488v2.28h-4.55v12.41h-2.76Z" transform="translate(-5.24 -4.07)"/><path class="cls-21" d="M509.13,102.26H502v4.24h7.85l-.34,2.28H499.32V94.09h10.13v2.28H502V100h7.13Z" transform="translate(-5.24 -4.07)"/><path class="cls-22" d="M58.92,34.21c.83-.23,1.07-.62.68-1.18a1.62,1.62,0,0,0-1.87-.55c-.85.23-1,.72-.65,1.21A1.64,1.64,0,0,0,58.92,34.21Z" transform="translate(-5.24 -4.07)"/><path class="cls-23" d="M30.7,48.19c1.2.59,2.5,1.07,3.28.44s-.22-1.25-1.51-1.89-2.47-1-3.2-.45S29.29,47.49,30.7,48.19Z" transform="translate(-5.24 -4.07)"/><path class="cls-24" d="M140.68,44.46c.56-.34.53-.76-.15-1.22l-1.2-.8-1.78,1.06,1.14.76A1.74,1.74,0,0,0,140.68,44.46Z" transform="translate(-5.24 -4.07)"/><path class="cls-25" d="M147,48.12h0c-.78.19-2.18.46-3.88.78l1.45,1.31C145.76,49.13,146.49,48.49,147,48.12Z" transform="translate(-5.24 -4.07)"/><path class="cls-26" d="M106.71,30.21h0c-.43.46-1.25,1.22-2.24,2.15l2.44.43C106.78,31.48,106.7,30.69,106.71,30.21Z" transform="translate(-5.24 -4.07)"/><polygon class="cls-27" points="54.08 61.25 67.38 52.09 82.33 62.39 82.33 58.26 70.39 50.03 67.39 47.96 67.37 47.96 46.94 62.05 42.24 65.3 45.23 67.36 54.08 61.25"/><polygon class="cls-28" points="59.24 49.22 53.67 49.22 53.67 56.5 59.24 52.66 59.24 49.22"/><path class="cls-29" d="M54.24,88.17l3.53.38V67.35L52.2,71.19V88Z" transform="translate(-5.24 -4.07)"/><path class="cls-30" d="M111.31,80.93a.74.74,0,0,0-.35-.41,1.5,1.5,0,0,0-.7-.16,82.54,82.54,0,0,0-8.47.12c-.67.06-1.9.15-3.39.41a24,24,0,0,0-3.44.76c-1.09.32-2.28.64-3.57.93-1.7.38-3.29.65-4.73.84l-9.35.89A3,3,0,0,0,76,85a1.52,1.52,0,0,0-.53,1.18A1.62,1.62,0,0,0,76,87.33a3.46,3.46,0,0,0,1.81.85h4.78a.79.79,0,0,1,.3.12.41.41,0,0,1,.17.2.26.26,0,0,1,0,.28c-.14.16-1.66,1.41-1.7,1.41A78.68,78.68,0,0,1,66.09,90c-7.84-.89-15-1.7-16.54-1.73a3,3,0,0,0-1.41.64,1.56,1.56,0,0,0-.52.93,1.49,1.49,0,0,0,.29.84,2.51,2.51,0,0,0,.88.77l28.74,6c.78.19,3.2,1,4.21,1.13a19,19,0,0,0,3.27.32,19.39,19.39,0,0,0,2.46-.24c.83-.12,2.32-.59,2.92-.72,3.63-.83,5.73-1.42,9.35-2.26.52-.13,2.59-.54,3.27-.64s2-.21,2.58-.25c1.51,0,3.27.14,4.78.08a1.27,1.27,0,0,0,.65-.28.73.73,0,0,0,.29-.68Z" transform="translate(-5.24 -4.07)"/><path class="cls-31" d="M66.24,81.62H79.1V72.76H66.24Zm1.42-7.87h10v6.88h-10Z" transform="translate(-5.24 -4.07)"/><path class="cls-32" d="M153.55,62.07l.68,1.53c1.72-.75,2.74-1.2,3.4-1.45h0C156.79,62.15,155.32,62.11,153.55,62.07Z" transform="translate(-5.24 -4.07)"/><path class="cls-33" d="M125.56,80.12H113.29a1.24,1.24,0,0,0-.58.24.61.61,0,0,0-.23.41V97.21a.89.89,0,0,0,.35.32,1.48,1.48,0,0,0,.58.16h9.83a1.51,1.51,0,0,0,.58-.25.8.8,0,0,0,.35-.4l2.34-16.27a.66.66,0,0,0-.35-.49A1.38,1.38,0,0,0,125.56,80.12Z" transform="translate(-5.24 -4.07)"/><path class="cls-34" d="M87,23.27C41.85,23.27,5.24,46.4,5.24,74.94V83.2A34.74,34.74,0,0,0,9.12,99c.31.62.64,1.23,1,1.84s.85,1.43,1.31,2.13c.31.49.64,1,1,1.46s.91,1.25,1.41,1.86c.31.41.65.81,1,1.22s1,1.13,1.48,1.69l1,1c.5.52,1,1,1.56,1.54.31.31.65.61,1,.92.54.49,1.08,1,1.65,1.44l1,.83c.56.45,1.12.9,1.7,1.33l1,.75L27,118.23l1,.67c.62.41,1.23.79,1.86,1.18l1,.62,1.92,1.1,1,.55c.64.35,1.3.7,2,1,.32.18.65.35,1,.52l2,1,1,.45,2.09.9,1,.42,2.13.83c.32.13.65.25,1,.37l2.17.78,1,.33c.73.24,1.47.48,2.22.7.32.11.66.21,1,.3.74.23,1.5.44,2.25.64.33.1.65.19,1,.27.75.2,1.52.4,2.29.58l1,.23c.76.19,1.53.35,2.32.52l1,.21c.77.15,1.55.31,2.34.45l1,.17c.79.14,1.56.27,2.36.38l1,.15c.79.12,1.59.23,2.39.32l1,.12c.8.1,1.6.18,2.4.26l1,.09c.8.07,1.6.14,2.41.19.33,0,.66.05,1,.06.8.06,1.61.1,2.43.13h1l2.42.07h4.22l2.42-.07h1c.81,0,1.62-.07,2.43-.13l1-.06c.8-.05,1.61-.12,2.41-.19l1-.09c.8-.08,1.61-.16,2.4-.26l1-.12c.81-.09,1.6-.2,2.4-.32l1-.15c.78-.11,1.57-.24,2.35-.38l1-.17c.78-.14,1.57-.3,2.34-.45l1-.21c.78-.17,1.54-.33,2.32-.52l1-.23c.77-.18,1.53-.38,2.29-.58l1-.27c.75-.2,1.51-.41,2.25-.64.34-.09.66-.19,1-.3.74-.22,1.49-.46,2.21-.7l1-.33,2.17-.78c.34-.12.66-.24,1-.38l2.14-.82,1-.42,2.07-.9,1-.45c.69-.32,1.36-.66,2-1l1-.52,2-1,1-.55c.65-.36,1.29-.73,1.92-1.1l1-.62c.63-.38,1.25-.77,1.84-1.17l1-.67c.6-.41,1.2-.84,1.78-1.26l1-.75c.59-.43,1.15-.87,1.71-1.33l1-.82c.57-.48,1.12-1,1.65-1.45.35-.31.67-.61,1-.92.54-.51,1.06-1,1.56-1.53.34-.35.67-.7,1-1.06.51-.55,1-1.11,1.49-1.69.35-.4.68-.81,1-1.22.48-.6,1-1.22,1.4-1.84s.67-1,1-1.47c.47-.7.9-1.41,1.31-2.12s.68-1.23,1-1.86A34.55,34.55,0,0,0,169,83.17V74.94C168.73,46.4,132.13,23.27,87,23.27Zm-77.86,73a34.55,34.55,0,0,1-2.26-7.72c0,.13.11.26.16.39s.15.36.23.53c.56,1.22,1.17,2.44,1.87,3.64Zm147.4-38.53-8,2-.6-1,8-2Zm-3.8-5.18-6.49,2.1,2,2.43-1.28.29-2.68-3.24,7.66-2.51Zm-5.33-5.35,1.17,1-5.28,4.73-1-.88,1.36-1.22-1.88-1.67-2.24.4-.92-.82Zm-5.7-4.37c1.26.85,1.2,1.74.23,2.32a3,3,0,0,1-2.4.27c.24.31.33.8-.78,1.46l-.3.18a5.17,5.17,0,0,0-1.13.78l-1.08-.73a5.33,5.33,0,0,1,1.27-.9l.11-.07c.76-.45.92-.78-.08-1.44l-1-.65-2.61,1.54-1-.76,6.34-3.69Zm-10.31-5.9,5.41,2.78-.85.66-2.07-1.07-4.64,3.53L128,42.19l4.62-3.55-2.08-1.07Zm-8.88,2a1.84,1.84,0,0,0,2-.1c.41-.37.24-.74-.9-1.46-1.62-1-1.72-1.66-1.1-2.29a3.79,3.79,0,0,1,3.91-.3c1.88.74,2,1.69,1.45,2.38l-1.39-.55c.23-.36.24-.8-.75-1.19a1.58,1.58,0,0,0-1.71.11c-.36.36-.16.64.88,1.3,1.81,1.15,1.74,1.82,1.12,2.45-.8.81-2.34,1-4.23.27s-2.22-1.72-1.55-2.57l1.39.54c-.39.57,0,1,.88,1.38Zm-10.69-5.1,2.08-3,1.49.42-2.1,3c-.72,1-.07,1.57.84,1.82a2.21,2.21,0,0,0,2.67-.84l2.1-3,1.48.41-2.06,2.93c-1.17,1.67-3,1.69-4.73,1.21S110.68,35.44,111.82,33.84Zm-5.72-4.5,2,.34.65,5.77-1.64-.29-.17-1.47-3.14-.56-1.33,1.21-1.54-.28ZM87,27c2.34,0,4.24,1.19,4.24,2.66s-1.9,2.66-4.24,2.66-4.23-1.19-4.23-2.66S84.66,27,87,27ZM57.24,31.77a3.69,3.69,0,0,1,4.28,1.45c.89,1.31,1.35,2.85-1,3.48a3.4,3.4,0,0,1-3.28-.53l1.44-.39a1.59,1.59,0,0,0,1.49.19c1.2-.32.66-1.32.32-1.88-.11.41-.63.71-1.34.91a3.11,3.11,0,0,1-3.44-.87C55,33.22,55.54,32.23,57.24,31.77Zm-15.6,5.86.88-.43,5,4.11-1.25.6-3.91-3.19a4,4,0,0,1-1,.84L40.69,39A2.31,2.31,0,0,0,41.64,37.63Zm-13.4,8.21c1.4-1.12,3.4-.74,5.18.14s3,2,1.5,3.19-3.49.73-5.24-.14S26.85,47,28.24,45.84Zm-16.81,55c-.46-.79-.9-1.6-1.31-2.41V94.75c.37.58.77,1.16,1.16,1.72l.15.2Zm2.4,3.61c-.5-.66-1-1.33-1.41-2V98c.1.14.19.25.29.37l.37.47.12.13.27.33c.12.15.24.3.36.43Zm2.47,3.11c-.51-.59-1-1.2-1.48-1.8v-4.92c.22.27.46.53.71.79l.77.82Zm2.55,2.71c-.53-.52-1.05-1.06-1.56-1.61v-5.17l.32.32c.4.39.82.79,1.24,1.16ZM15.13,77.34c-2.34,0-4.24-1.19-4.24-2.66S12.79,72,15.13,72s4.23,1.19,4.23,2.66S17.47,77.34,15.13,77.34Zm6.36,35.35c-.57-.49-1.11-1-1.65-1.49v-5.36A1.56,1.56,0,0,1,20,106l.47.39,1,.86Zm2.69,2.25c-.58-.46-1.14-.92-1.7-1.39V108c.56.44,1.12.87,1.7,1.29Zm.65-54.75h-.09a3.53,3.53,0,0,1-2.58-2.35c-.35-.92-.49-1.2-1.21-1.4a1.39,1.39,0,0,0-1.59.38c-.34.5,0,.83.68,1.11l-.58.87c-1.22-.45-1.94-1.26-1.22-2.31a2.93,2.93,0,0,1,3.31-1c1.12.3,1.42.73,1.84,1.88a2.48,2.48,0,0,0,1,1.41L26,56.44l1.13.44ZM27,117c-.6-.43-1.2-.86-1.79-1.3V110c.59.43,1.19.83,1.79,1.23Zm2.85,1.9c-.64-.4-1.25-.8-1.86-1.22v-5.84c.53.35,1,.67,1.59,1l.27.16Zm2.91,1.75c-.66-.36-1.3-.74-1.92-1.13v-5.89l.13.07c.58.34,1.18.69,1.79,1Zm3,1.62-2-1v-6c.64.35,1.3.69,2,1Zm3,1.51c-.67-.32-1.36-.65-2-1v-6c.67.34,1.35.65,2,1ZM39,108.49a6.11,6.11,0,0,1-6,0c-1.66-1-1.66-2.73,0-3.77a6.11,6.11,0,0,1,6,0c1.63,1,1.63,2.73,0,3.77Zm2.76,16.67c-.71-.29-1.4-.61-2.09-.92v-6.08c.69.31,1.39.6,2.09.88Zm3.12,1.27c-.72-.28-1.43-.56-2.13-.85v-6.13l2.13.83Zm3.16,1.18-2.17-.8v-6.18c.72.27,1.44.52,2.17.77Zm3.21,1c-.75-.23-1.49-.46-2.22-.72v-6.21q1.11.36,2.22.69Zm3.24,1c-.77-.21-1.51-.42-2.25-.65v-6.25c.74.22,1.5.43,2.25.63Zm3.28.86c-.77-.19-1.54-.38-2.29-.58v-6.28c.75.19,1.52.39,2.29.57Zm3.31.76c-.79-.16-1.56-.34-2.32-.53v-6.29l2.32.51Zm3.33.67c-.8-.14-1.57-.3-2.34-.46v-6.32c.77.16,1.55.3,2.34.44Zm3.35.56c-.8-.11-1.57-.25-2.36-.39v-6.33c.79.14,1.56.27,2.36.38Zm3.38.48c-.8-.11-1.6-.21-2.39-.34v-6.33c.79.11,1.6.21,2.39.3Zm3.39.38-2.4-.27v-6.36c.81.1,1.6.18,2.4.25Zm3.41.29c-.81-.05-1.61-.13-2.41-.2V127c.8.08,1.6.15,2.41.19Zm3.42.2c-.82,0-1.63-.08-2.43-.14v-6.38c.81,0,1.61.1,2.43.13Zm3.41.09c-.81,0-1.62,0-2.42-.06v-6.38h2.42Zm3.44,0H85.77v-6.36h2.47Zm-1.54-11.37c-2.34,0-4.23-1.19-4.23-2.66s1.89-2.66,4.23-2.66,4.23,1.19,4.23,2.66-1.92,2.68-4.26,2.68Zm5,11.3c-.81,0-1.61,0-2.42.06v-6.38h2.42Zm3.42-.17c-.81.06-1.62.1-2.43.14v-6.39c.81,0,1.61-.08,2.43-.13Zm3.4-.26c-.8.07-1.61.15-2.41.2v-6.39c.8,0,1.61-.11,2.41-.19Zm3.39-.36c-.79.1-1.6.19-2.4.27v-6.38c.8-.07,1.6-.15,2.4-.25Zm3.39-.45c-.8.13-1.59.23-2.4.34v-6.37q1.2-.14,2.4-.3Zm3.34-.53c-.78.14-1.57.28-2.35.39V126.1c.78-.11,1.57-.24,2.35-.38Zm3.34-.63c-.77.16-1.56.32-2.34.46v-6.34c.78-.14,1.57-.28,2.34-.44Zm3.31-.73c-.76.18-1.55.36-2.32.52v-6.31l2.32-.51Zm3.28-.82-2.29.58v-6.29c.77-.18,1.53-.38,2.29-.57Zm3.24-.94c-.74.23-1.5.45-2.25.66v-6.27c.75-.2,1.51-.41,2.25-.63Zm3.2-1c-.74.25-1.47.49-2.21.72v-6.24c.74-.22,1.47-.45,2.21-.69Zm3.16-1.13c-.71.27-1.43.54-2.17.79v-6.2c.74-.25,1.46-.5,2.17-.77Zm3.13-1.24c-.71.3-1.41.58-2.14.86v-6.15l2.14-.83Zm3.06-1.33c-.69.31-1.36.63-2.07.92V119c.7-.28,1.38-.57,2.07-.88Zm3-1.46c-.66.35-1.35.68-2,1v-6.07a19.63,19.63,0,0,0,2-1Zm2.95-1.56c-.64.35-1.3.71-2,1v-6c.66-.32,1.32-.66,2-1Zm.16-12.59a6.11,6.11,0,0,1-6,0c-1.65-1-1.65-2.73,0-3.77a6.16,6.16,0,0,1,6,0c1.6,1,1.6,2.73,0,3.77Zm2.75,10.89c-.63.39-1.26.77-1.92,1.13v-5.93c.61-.33,1.2-.68,1.79-1l.13-.07Zm2.84-1.84c-.59.42-1.21.82-1.84,1.22V113l.25-.15,1-.62.57-.37h0Zm-59-4.19c-31.48,0-57.39-15.06-60.66-34.42a25.94,25.94,0,0,1-.33-4.13c0-7.81,3.68-15.08,10-21.15a46.37,46.37,0,0,1,3.59-3.12c10.89-8.48,27.37-14,45.9-14.28h3c18.53.29,35,5.8,45.9,14.28a40.08,40.08,0,0,1,3.6,3.12c6.31,6.07,10,13.34,10,21.15a22.8,22.8,0,0,1-.35,4.13c-3.36,19.36-29.27,34.42-60.75,34.42Zm61.81,2.21c-.57.44-1.17.87-1.78,1.3v-5.77c.23-.14.45-.31.68-.45l.4-.28c.24-.16.48-.32.7-.49Zm2.7-2.15c-.55.47-1.12.93-1.71,1.39V109.3l.09-.06,1.62-1.23Zm.1-47.6-.47-1,1.91-.86-.89-2L149.91,62l-.44-1,9.14.33.55,1.23Zm2.54,45.25c-.53.51-1.08,1-1.65,1.49V107.2c.18-.13.34-.27.5-.41.38-.31.78-.65,1.15-1Zm2.55-2.59c-.49.56-1,1.1-1.56,1.64v-5.33l1.24-1.15.32-.31Zm2.48-2.89c-.47.61-1,1.21-1.49,1.8v-5.06l.77-.81c.25-.26.48-.53.72-.79Zm2.39-3.31c-.44.67-.92,1.36-1.4,2V99.69l.35-.42a2.24,2.24,0,0,0,.27-.34l.11-.13c.14-.15.25-.32.37-.46l.3-.38Zm-3-24.87c-2.34,0-4.24-1.19-4.24-2.66s1.9-2.66,4.24-2.66,4.23,1.19,4.23,2.66-2,2.66-4.32,2.66ZM164,98.4c-.4.82-.83,1.62-1.31,2.4V96.64a1.43,1.43,0,0,0,.14-.2c.41-.57.79-1.16,1.17-1.74Zm1-2.15V93.07a40.54,40.54,0,0,0,2.26-4.52,34.61,34.61,0,0,1-2.35,7.7Z" transform="translate(-5.24 -4.07)"/><path class="cls-35" d="M87.57,82.84h0l.43-.08.6-.12h0l1.53-.31,1.31-.26h0c.62-.12,1.07-.21,1.43-.3l.23,0V76.93l-5.57-3.84Z" transform="translate(-5.24 -4.07)"/><polygon class="cls-36" points="67.39 53.66 53.45 63.28 53.45 67.41 67.39 57.8 87.24 71.5 89.54 73.08 92.53 71.01 70.39 55.74 67.39 53.66"/><rect class="cls-37" x="200.57" width="5.69" height="150"/></svg>