<svg id="Group_3" data-name="Group 3" xmlns="http://www.w3.org/2000/svg" width="486.088" height="114.288" viewBox="0 0 486.088 114.288">
  <path id="Path_1" data-name="Path 1" d="M172.17,29.348a23.67,23.67,0,0,0-23.641,23.641V84.215a2.758,2.758,0,0,0,3.833,2.632,2.756,2.756,0,0,0,1.679-2.632V52.988a18.129,18.129,0,0,1,36.258,0V84.215a2.757,2.757,0,0,0,5.515,0V52.988A23.67,23.67,0,0,0,172.17,29.348Z"/>
  <path id="Path_2" data-name="Path 2" d="M400.319,29.347a23.663,23.663,0,0,0-20.884,12.579,23.634,23.634,0,0,0-44.527,11.062V84.215a2.758,2.758,0,1,0,5.512,0V52.988a18.129,18.129,0,0,1,36.258,0V84.215a2.757,2.757,0,0,0,5.515,0V52.988a18.129,18.129,0,0,1,36.258,0V84.215a2.758,2.758,0,1,0,5.512,0V52.988a23.67,23.67,0,0,0-23.644-23.641Z"/>
  <path id="Path_3" data-name="Path 3" d="M462.448,29.348a23.668,23.668,0,0,0-23.641,23.641V63.332a23.641,23.641,0,1,0,47.281,0V52.988a23.668,23.668,0,0,0-23.64-23.641Zm18.129,33.984a18.13,18.13,0,0,1-36.259,0V52.988a18.13,18.13,0,0,1,36.259,0Z"/>
  <path id="Path_4" data-name="Path 4" d="M234.295,29.348a23.67,23.67,0,0,0-23.641,23.641V63.332a23.645,23.645,0,0,0,43.574,12.694,2.756,2.756,0,0,0-4.647-2.964,18.13,18.13,0,0,1-33.428-9.729V60.918h39.029a2.757,2.757,0,0,0,2.754-2.757V52.988a23.67,23.67,0,0,0-23.641-23.641ZM252.424,55.4H216.166V52.988a18.129,18.129,0,0,1,36.258,0Z"/>
  <path id="Path_5" data-name="Path 5" d="M319.031,29.955a2.753,2.753,0,0,0-3.873.426L296.424,53.755,277.691,30.381a2.757,2.757,0,0,0-4.3,3.448l19.5,24.331-19.5,24.331a2.758,2.758,0,1,0,4.3,3.451l18.733-23.374,18.734,23.374a2.758,2.758,0,0,0,3.877.426,2.76,2.76,0,0,0,.426-3.877l-19.5-24.331,19.5-24.331a2.754,2.754,0,0,0-.43-3.874Z"/>
  <path id="Path_6" data-name="Path 6" d="M114.281,56.643a57.146,57.146,0,0,1-32.375,52.014A1.508,1.508,0,0,1,79.74,107.3V61.41a32,32,0,0,0-31.767-32c-17.728-.127-32.232,14.649-32.232,32.378V92.557a1.5,1.5,0,0,1-2.659.97,57.141,57.141,0,1,1,101.2-36.894Z" fill="#ffd400"/>
  <path id="Path_7" data-name="Path 7" d="M59.312,58.987v55.3a56.9,56.9,0,0,1-33.062-10.3,2.447,2.447,0,0,1-1.043-2V59.241a17.053,17.053,0,1,1,34.1-.255Z" fill="#ffd400"/>
</svg>
