<svg id="Layer_1" data-name="Layer 1" xmlns="http://www.w3.org/2000/svg" xmlns:xlink="http://www.w3.org/1999/xlink" viewBox="0 0 1774.48 460.96"><defs><style>.cls-1{fill:url(#linear-gradient);}</style><linearGradient id="linear-gradient" x1="95.86" y1="230.48" x2="1678.62" y2="230.48" gradientUnits="userSpaceOnUse"><stop offset="0" stop-color="#f9af8d"/><stop offset="0.22" stop-color="#eb2531"/><stop offset="1" stop-color="#f9af8d"/></linearGradient></defs><path class="cls-1" d="M1237.44,232.43q-25.87,0-38.53,10.91t-12.65,32.06V347a52.24,52.24,0,0,0,2.17,16.32,26.52,26.52,0,0,0,8.07,11.59,37.54,37.54,0,0,0,11,7.58,57.36,57.36,0,0,0,15.21,4,210.87,210.87,0,0,0,22.74,1.69c9,.25,17.31.39,34.44.39s24.71-.14,33.75-.39a215.06,215.06,0,0,0,22.94-1.69,62.21,62.21,0,0,0,15.6-4,38.84,38.84,0,0,0,11.44-7.58,29.19,29.19,0,0,0,7.39-11.78A53.64,53.64,0,0,0,1373,347V293.75h-95.42V323h53.32v17.87a7.6,7.6,0,0,1-3.38,6.42q-3.37,2.46-11.11,2.46h-73.6c-5.67,0-9.46-.56-11.4-1.69s-2.89-3.52-2.89-7.19v-62.1q0-3.39,3.38-5.74c2.25-1.59,5.89-2.37,10.91-2.37h129.61a38.24,38.24,0,0,0-38.24-38.24ZM1438.56,289a49.3,49.3,0,0,1,1.46-13.46,14.46,14.46,0,0,1,4.82-7.61,18.15,18.15,0,0,1,8.93-3.36,107.51,107.51,0,0,1,13.75-.73h61.56q9.95,0,13.89,2.63t4,10.53v20.48H1438.56Zm28.37-58.81q-21.06,0-34.81,3.22T1410,243.83a38,38,0,0,0-11.7,19Q1395,274.69,1395,292v36.57q0,31.61,16.1,45.93t53.83,14.34h51.49a33.06,33.06,0,0,0-33.06-33.06h-18.43a76.55,76.55,0,0,1-12.73-.88,17.54,17.54,0,0,1-8.19-3.36,12.71,12.71,0,0,1-4.24-6.88,46.49,46.49,0,0,1-1.17-11.7v-7.32h152V273.52a55.86,55.86,0,0,0-2.63-17.41,30.63,30.63,0,0,0-9.22-13.75q-6.59-5.7-17.85-8.92t-28.23-3.22Zm-556-.15V344.12c0,24.5,19.3,44.37,43.11,44.37V230.07Zm137.89,0q-21.32,0-35.52,3.65t-22.73,11.7q-8.53,8-12.07,21.2t-3.57,32.17v89.7h42.39V300.26a71.67,71.67,0,0,1,1.68-16.33,19.23,19.23,0,0,1,5.44-10,22,22,0,0,1,10.64-5.12,79.66,79.66,0,0,1,16.57-1.46h35.85a82.06,82.06,0,0,1,16.82,1.46,22.41,22.41,0,0,1,10.42,5.12,19.23,19.23,0,0,1,5.44,10c1.18,4.38,1.65,9.75,1.65,16.33v44.6c0,24.09,19,43.63,42.39,43.63v-89.7q0-19-3.55-32.17t-12.06-21.2q-8.53-8.05-22.74-11.7c-9.48-2.44-21.3-3.65-35.76-3.65Zm628.19-.24c-13,0-25.81,1.41-34.8,3.78-9,2.61-16.57,6.4-22.27,11.61a46.33,46.33,0,0,0-12.56,20.13c-2.58,8.29-4,18-4,29.6v93.84h41.92V295a66.67,66.67,0,0,1,1.65-15.16,21.53,21.53,0,0,1,5.19-9.47,21.22,21.22,0,0,1,9.49-4.74c3.79-.94,10.42-1.42,16.33-1.42h.71V229.83Zm-945.9,0a36.94,36.94,0,0,0-9,11.84l-41.67,92.11L636.09,230.07H593.47L655,373.1a30.36,30.36,0,0,0,7.83,11.13c3.3,2.6,8.28,4,14.69,4,5.69,0,10.63-1.19,14.43-4a28.84,28.84,0,0,0,9.24-11.13l43.35-95,43.55,95a31,31,0,0,0,9,10.89c3.8,3.07,8.52,4.5,14,4.5a23.76,23.76,0,0,0,14.43-4.5,28.67,28.67,0,0,0,9-10.89l64.4-143H856.82L810.16,333.78l-41.68-92.11a30.93,30.93,0,0,0-8.77-12.08c-3.32-2.61-8.05-3.78-14.21-3.78-6.4,0-11.13,1.17-14.43,4M506.62,182.89v47.18H491.14V264.4h15.48v59.2c0,11.6,1.43,21.31,4,29.6a43.6,43.6,0,0,0,12.78,19.9c5.66,5.2,13.25,9,22.24,11.59a131.86,131.86,0,0,0,33.15,3.8h10V353.91H580a62.62,62.62,0,0,1-14.68-1.42c-4-.94-6.38-3.32-8.75-5.68a18.52,18.52,0,0,1-5.22-8.29,75.31,75.31,0,0,1-1.65-15.86V264.4h1.65a34.34,34.34,0,0,0,34.34-34.33h-36V182.89Zm418.73-15.74c-5.22,0-9,1.19-11.13,3.08s-3.33,5.21-3.33,9.71v16.57c0,4.5,1.21,7.82,3.33,10s5.91,3.08,11.13,3.08h14c5.69,0,9.48-.95,11.6-3.08s3.32-5.45,3.32-10V179.94c0-4.5-1.18-7.82-3.32-9.71-2.36-2.13-6.16-3.08-11.6-3.08Zm-698.23,193c47.39,3.13,67.93,27.82,67.93,27.82s.75-25.29-19.87-39.4c-25-18.36-51.42-16.1-78.07-25.5-27.37-9.65-47-28.58-47-28.58,6.56,46.39,31.44,62.66,77,65.66m-30.5-63.55c56.51,10.62,90.16,24.27,105.8,72.1,1.47-12.08,1.66-24.81-2-36.54-5.59-18-21.45-32.85-35.7-44.35a187.3,187.3,0,0,0-50.77-29c-1.24-.47-2.5-.94-3.75-1.39-15.94-5.7-32.22-9.49-47.63-16.58-16.14-7.42-29.47-20.23-40.75-33.81-7-8.41-19.59-29.84-21.92-40.45-20.57,83.2,41.24,119.63,96.72,130m115-160c-24.92-2-51.47-4-89.88,16.38,98,37.6,134.1,151.62,94.51,234.61,23.08-11.63,19.61-11.32,35.67-36.54,26.41-56.26,13.83-113.66-27.46-152.58,24.44,18,65.56,62.28,53.93,129.56,21.23-24,30.15-38.38,32.35-60,3.33-32.65-22.22-72.06-51.41-92.69,11.56-6.88,34-30.42,36.74-57.95-34.15,23.47-58.42,21.36-84.45,19.25M163.57,210.15c32,17.63,61.78,25.16,90.94,47.7a174.21,174.21,0,0,1,34,34.87,151.83,151.83,0,0,1,12.84,20.91c2.48,4.89,9.07,15.79,8.38,21.34,6.72-49.34-12.11-91.9-47.31-121.49-32.48-27.29-65.89-36-98.26-62.85-19.79-16.41-49.61-49.78-46-78.46-17.4,63.12.07,113,45.42,138"/></svg>