<svg xmlns="http://www.w3.org/2000/svg" viewBox="0 0 300 300" width="300" height="300">
  <defs>
    <linearGradient id="aboutGrad" x1="0%" y1="0%" x2="100%" y2="100%">
      <stop offset="0%" style="stop-color:#51BEA1;stop-opacity:0.2" />
      <stop offset="100%" style="stop-color:#51BEA1;stop-opacity:0.05" />
    </linearGradient>
  </defs>
  
  <!-- Background -->
  <rect width="300" height="300" fill="url(#aboutGrad)" rx="15"/>
  
  <!-- Success metrics illustration -->
  <g transform="translate(50, 50)">
    <!-- Growth chart -->
    <rect x="0" y="150" width="200" height="100" fill="#ffffff" rx="5" opacity="0.8"/>
    
    <!-- Chart bars -->
    <rect x="20" y="200" width="15" height="30" fill="#51BEA1"/>
    <rect x="45" y="180" width="15" height="50" fill="#51BEA1"/>
    <rect x="70" y="160" width="15" height="70" fill="#51BEA1"/>
    <rect x="95" y="140" width="15" height="90" fill="#51BEA1"/>
    <rect x="120" y="120" width="15" height="110" fill="#51BEA1"/>
    <rect x="145" y="100" width="15" height="130" fill="#51BEA1"/>
    <rect x="170" y="90" width="15" height="140" fill="#51BEA1"/>
    
    <!-- Arrow pointing up -->
    <polygon points="100,50 110,70 90,70" fill="#51BEA1"/>
    <rect x="97" y="70" width="6" height="30" fill="#51BEA1"/>
    
    <!-- Stars for achievement -->
    <g fill="#f39c12" opacity="0.8">
      <polygon points="30,30 32,36 38,36 33,40 35,46 30,42 25,46 27,40 22,36 28,36" />
      <polygon points="170,20 172,26 178,26 173,30 175,36 170,32 165,36 167,30 162,26 168,26" />
      <polygon points="180,60 182,66 188,66 183,70 185,76 180,72 175,76 177,70 172,66 178,66" />
    </g>
  </g>
  
  <!-- Decorative elements -->
  <circle cx="250" cy="50" r="20" fill="#51BEA1" opacity="0.3"/>
  <rect x="20" y="20" width="15" height="15" fill="#51BEA1" opacity="0.4" rx="3" transform="rotate(45 27.5 27.5)"/>
  <circle cx="270" cy="250" r="12" fill="#51BEA1" opacity="0.5"/>
</svg>
