<svg width="3744" height="864" viewBox="0 0 3744 864" fill="none" xmlns="http://www.w3.org/2000/svg">
<g clip-path="url(#clip0_313_962)">
<path d="M1068.34 720C1064.5 720 1061.48 718.9 1059.29 716.71C1057.1 714.51 1056 711.5 1056 707.66V156.34C1056 152.5 1057.1 149.49 1059.29 147.29C1061.49 145.1 1064.5 144 1068.34 144H1341.53C1347.57 144 1352.78 146.19 1357.16 150.58L1423.81 217.23C1428.2 221.62 1430.39 226.83 1430.39 232.86V383.45C1430.39 389.48 1428.2 394.7 1423.81 399.08L1390.9 431.99L1423.81 464.9C1428.2 469.29 1430.39 474.5 1430.39 480.54V631.12C1430.39 637.15 1428.2 642.37 1423.81 646.75L1357.16 713.4C1352.77 717.79 1347.56 719.98 1341.53 719.98H1068.34V720ZM1171.2 616.32H1302.86L1315.2 603.98V513.47L1285.58 483.85H1171.2V616.33V616.32ZM1171.2 380.16H1285.58L1315.2 350.54V260.02L1302.86 247.68H1171.2V380.16Z" fill="#535958"/>
<path d="M1528.89 720C1525.05 720 1522.03 718.9 1519.84 716.71C1517.65 714.51 1516.55 711.5 1516.55 707.66V156.34C1516.55 152.5 1517.65 149.48 1519.84 147.29C1522.03 145.1 1525.05 144 1528.89 144H1619.4C1623.24 144 1626.26 145.1 1628.45 147.29C1630.65 149.48 1631.74 152.5 1631.74 156.34V616.32H1815.24C1819.08 616.32 1822.1 617.42 1824.29 619.61C1826.49 621.81 1827.58 624.82 1827.58 628.66V707.65C1827.58 711.49 1826.48 714.51 1824.29 716.7C1822.1 718.89 1819.08 719.99 1815.24 719.99H1528.89V720Z" fill="#535958"/>
<path d="M1902.91 720C1894.13 720 1890.57 715.34 1892.21 706.01L2014.82 154.7C2016.47 147.57 2021.13 144 2028.81 144H2190.92C2198.6 144 2203.26 147.57 2204.9 154.7L2320.93 706.84V710.13C2320.93 716.71 2317.09 720 2309.41 720H2218.89C2211.21 720 2206.55 716.43 2204.9 709.3L2181.86 599.04H2032.1L2008.24 709.3C2006.59 716.43 2001.93 720 1994.25 720H1902.91ZM2055.14 495.36H2160.46L2109.44 247.68L2055.14 495.36Z" fill="#535958"/>
<path d="M2397.74 720C2393.9 720 2390.88 718.9 2388.69 716.71C2386.49 714.51 2385.4 711.5 2385.4 707.66V156.34C2385.4 152.5 2386.49 149.48 2388.69 147.29C2390.88 145.1 2393.9 144 2397.74 144H2502.24C2508.28 144 2512.94 147.02 2516.23 153.05L2615.8 357.12L2715.36 153.05C2718.65 147.02 2723.32 144 2729.35 144H2833.85C2837.69 144 2840.71 145.1 2842.9 147.29C2845.1 149.48 2846.2 152.5 2846.2 156.34V707.66C2846.2 711.5 2845.1 714.52 2842.9 716.71C2840.71 718.9 2837.69 720 2833.85 720H2743.34C2739.5 720 2736.48 718.9 2734.29 716.71C2732.09 714.51 2731 711.5 2731 707.66V357.12L2624.02 573.53C2622.38 577.92 2619.64 580.11 2615.8 580.11C2613.05 580.11 2610.31 577.92 2607.57 573.53L2500.6 357.12V707.66C2500.6 711.5 2499.5 714.52 2497.3 716.71C2495.11 718.9 2492.09 720 2488.25 720H2397.74Z" fill="#535958"/>
<path d="M2945.07 720C2941.23 720 2938.21 718.9 2936.02 716.71C2933.82 714.51 2932.72 711.5 2932.72 707.66V156.34C2932.72 152.5 2933.82 149.48 2936.02 147.29C2938.21 145.1 2941.23 144 2945.07 144H3254.46C3258.3 144 3261.32 145.1 3263.51 147.29C3265.71 149.48 3266.8 152.5 3266.8 156.34V235.34C3266.8 239.18 3265.71 242.2 3263.51 244.39C3261.32 246.58 3258.3 247.68 3254.46 247.68H3047.92V380.16H3191.1C3194.94 380.16 3197.96 381.26 3200.15 383.45C3202.35 385.64 3203.44 388.66 3203.44 392.5V471.49C3203.44 475.33 3202.35 478.35 3200.15 480.54C3197.96 482.73 3194.94 483.83 3191.1 483.83H3047.92V616.31H3254.46C3258.3 616.31 3261.32 617.41 3263.51 619.6C3265.71 621.8 3266.8 624.81 3266.8 628.65V707.64C3266.8 711.48 3265.71 714.5 3263.51 716.69C3261.32 718.88 3258.3 719.98 3254.46 719.98H2945.07V720Z" fill="#535958"/>
<path d="M3441.19 720C3435.15 720 3429.94 717.81 3425.55 713.42L3358.9 646.77C3354.51 642.38 3352.32 637.17 3352.32 631.14V232.87C3352.32 226.84 3354.51 221.62 3358.9 217.24L3425.55 150.59C3429.94 146.2 3435.15 144.01 3441.19 144.01H3655.13C3661.16 144.01 3666.38 146.2 3670.76 150.59L3737.42 217.24C3741.8 221.63 3744 226.84 3744 232.87V631.13C3744 637.16 3741.8 642.38 3737.42 646.76L3670.76 713.41C3666.38 717.8 3661.16 719.99 3655.13 719.99H3441.19V720ZM3479.86 616.32H3616.46L3628.8 603.98V260.02L3616.46 247.68H3479.86L3467.52 260.02V603.98L3479.86 616.32Z" fill="#535958"/>
</g>
<path d="M864 0H533V331H864V0Z" fill="#96979C"/>
<path d="M864 409V864H0V0H455V127H127V737H737V409H864Z" fill="#51BEA1"/>
<defs>
<clipPath id="clip0_313_962">
<rect width="2688" height="576" fill="white" transform="translate(1056 144)"/>
</clipPath>
</defs>
</svg>
