<svg width="203" height="48" viewBox="0 0 203 48" fill="none" xmlns="http://www.w3.org/2000/svg">
<g clip-path="url(#clip0_313_472)">
<path d="M58.2179 39.3506C58.0111 39.3506 57.8485 39.2914 57.7305 39.1734C57.6126 39.055 57.5533 38.8928 57.5533 38.686V8.99393C57.5533 8.78712 57.6126 8.62502 57.7305 8.50653C57.849 8.38859 58.0111 8.32935 58.2179 8.32935H72.931C73.2563 8.32935 73.5368 8.44729 73.7727 8.68372L77.3623 12.2732C77.5987 12.5097 77.7166 12.7903 77.7166 13.115V21.2253C77.7166 21.55 77.5987 21.8311 77.3623 22.067L75.5898 23.8394L77.3623 25.6119C77.5987 25.8483 77.7166 26.1289 77.7166 26.4542V34.5639C77.7166 34.8886 77.5987 35.1698 77.3623 35.4056L73.7727 38.9952C73.5363 39.2316 73.2557 39.3495 72.931 39.3495H58.2179V39.3506ZM63.7576 33.7668H70.8483L71.5129 33.1022V28.2277L69.9177 26.6324H63.7576V33.7673V33.7668ZM63.7576 21.0481H69.9177L71.5129 19.4528V14.5778L70.8483 13.9132H63.7576V21.0481Z" fill="white"/>
<path d="M83.0213 39.3506C82.8145 39.3506 82.6518 39.2914 82.5339 39.1734C82.4159 39.055 82.3567 38.8928 82.3567 38.686V8.99393C82.3567 8.78712 82.4159 8.62448 82.5339 8.50653C82.6518 8.38859 82.8145 8.32935 83.0213 8.32935H87.8958C88.1026 8.32935 88.2653 8.38859 88.3832 8.50653C88.5017 8.62448 88.5604 8.78712 88.5604 8.99393V33.7668H98.4431C98.6499 33.7668 98.8125 33.826 98.9305 33.944C99.0489 34.0625 99.1076 34.2246 99.1076 34.4314V38.6855C99.1076 38.8923 99.0484 39.055 98.9305 39.1729C98.8125 39.2908 98.6499 39.3501 98.4431 39.3501H83.0213V39.3506Z" fill="white"/>
<path d="M103.165 39.3506C102.692 39.3506 102.5 39.0997 102.589 38.5972L109.192 8.90561C109.281 8.52161 109.532 8.32935 109.945 8.32935H118.676C119.09 8.32935 119.341 8.52161 119.429 8.90561L125.678 38.6419V38.8191C125.678 39.1734 125.471 39.3506 125.057 39.3506H120.182C119.769 39.3506 119.518 39.1584 119.429 38.7744L118.188 32.8362H110.122L108.837 38.7744C108.749 39.1584 108.498 39.3506 108.084 39.3506H103.165ZM111.363 27.2523H117.035L114.288 13.9132L111.363 27.2523Z" fill="white"/>
<path d="M129.814 39.3506C129.608 39.3506 129.445 39.2914 129.327 39.1734C129.209 39.055 129.15 38.8928 129.15 38.686V8.99393C129.15 8.78712 129.209 8.62448 129.327 8.50653C129.445 8.38859 129.608 8.32935 129.814 8.32935H135.442C135.768 8.32935 136.019 8.49199 136.196 8.81675L141.558 19.8072L146.92 8.81675C147.098 8.49199 147.349 8.32935 147.674 8.32935H153.302C153.509 8.32935 153.671 8.38859 153.789 8.50653C153.908 8.62448 153.967 8.78712 153.967 8.99393V38.686C153.967 38.8928 153.908 39.0555 153.789 39.1734C153.671 39.2914 153.509 39.3506 153.302 39.3506H148.427C148.22 39.3506 148.058 39.2914 147.94 39.1734C147.821 39.055 147.763 38.8928 147.763 38.686V19.8072L142.001 31.4623C141.913 31.6987 141.765 31.8167 141.558 31.8167C141.41 31.8167 141.263 31.6987 141.115 31.4623L135.354 19.8072V38.686C135.354 38.8928 135.295 39.0555 135.176 39.1734C135.058 39.2914 134.896 39.3506 134.689 39.3506H129.814Z" fill="white"/>
<path d="M159.292 39.3506C159.085 39.3506 158.922 39.2914 158.804 39.1734C158.686 39.055 158.627 38.8928 158.627 38.686V8.99393C158.627 8.78712 158.686 8.62448 158.804 8.50653C158.922 8.38859 159.085 8.32935 159.292 8.32935H175.954C176.161 8.32935 176.324 8.38859 176.442 8.50653C176.56 8.62448 176.619 8.78712 176.619 8.99393V13.2486C176.619 13.4554 176.56 13.618 176.442 13.736C176.324 13.8539 176.161 13.9132 175.954 13.9132H164.831V21.0481H172.542C172.749 21.0481 172.911 21.1073 173.029 21.2253C173.148 21.3432 173.207 21.5058 173.207 21.7127V25.9668C173.207 26.1736 173.148 26.3362 173.029 26.4542C172.911 26.5721 172.749 26.6314 172.542 26.6314H164.831V33.7663H175.954C176.161 33.7663 176.324 33.8255 176.442 33.9434C176.56 34.0619 176.619 34.224 176.619 34.4308V38.685C176.619 38.8918 176.56 39.0544 176.442 39.1724C176.324 39.2903 176.161 39.3495 175.954 39.3495H159.292V39.3506Z" fill="white"/>
<path d="M186.011 39.3508C185.686 39.3508 185.405 39.2329 185.169 38.9964L181.579 35.4069C181.343 35.1705 181.225 34.8899 181.225 34.5651V13.1158C181.225 12.791 181.343 12.5099 181.579 12.274L185.169 8.68445C185.405 8.44802 185.686 8.33008 186.011 8.33008H197.533C197.858 8.33008 198.139 8.44802 198.375 8.68445L201.965 12.274C202.201 12.5104 202.319 12.791 202.319 13.1158V34.5646C202.319 34.8894 202.201 35.1705 201.965 35.4064L198.375 38.9959C198.139 39.2323 197.858 39.3503 197.533 39.3503H186.011V39.3508ZM188.094 33.767H195.45L196.115 33.1024V14.578L195.45 13.9134H188.094L187.429 14.578V33.1024L188.094 33.767Z" fill="white"/>
</g>
<path d="M47.2127 0.574463H29.3862V18.4009H47.2127V0.574463Z" fill="white"/>
<path d="M47.2128 22.6017V47.1064H0.680908V0.574463H25.1856V7.41422H7.52067V40.2666H40.3731V22.6017H47.2128Z" fill="white"/>
<defs>
<clipPath id="clip0_313_472">
<rect width="144.766" height="31.0213" fill="white" transform="translate(57.5532 8.32959)"/>
</clipPath>
</defs>
</svg>
